<?xml version="1.0" ?><svg height="90px" id="Layer_1" version="1.1" viewBox="0 0 90 90" width="90px" xml:space="preserve" xmlns="http://www.w3.org/2000/svg" xmlns:xlink="http://www.w3.org/1999/xlink"><style type="text/css">
	.st0{fill:#82DD47;}
	.st1{fill:#EFEAE1;}
	.st2{fill:#DAE3E6;}
	.st3{fill:#81D4EF;}
	.st4{fill:#FFF200;}
	.st5{fill:#FFBF00;}
	.st6{fill:#76D03B;}
	.st7{fill:none;stroke:#383128;stroke-width:2;stroke-linecap:round;stroke-linejoin:round;stroke-miterlimit:10;}
	.st8{fill:#E45544;}
	.st9{fill:none;stroke:#2B3F15;stroke-width:2;stroke-linecap:round;stroke-linejoin:round;stroke-miterlimit:10;}
	.st10{fill:none;stroke:#FFFFFF;stroke-width:2;stroke-linecap:round;stroke-linejoin:round;stroke-miterlimit:10;}
	.st11{fill:#FFFFFF;stroke:#232E38;stroke-width:2;stroke-linecap:round;stroke-linejoin:round;stroke-miterlimit:10;}
	.st12{fill:none;stroke:#232E38;stroke-width:2;stroke-linecap:round;stroke-linejoin:round;stroke-miterlimit:10;}
	.st13{fill:#F1B565;}

		.st14{fill-rule:evenodd;clip-rule:evenodd;fill:none;stroke:#232E38;stroke-width:2;stroke-linecap:round;stroke-linejoin:round;stroke-miterlimit:10;}
	.st15{fill:#A6ACB2;}

		.st16{fill-rule:evenodd;clip-rule:evenodd;fill:#E45544;stroke:#3F291E;stroke-width:2;stroke-linecap:round;stroke-linejoin:round;stroke-miterlimit:10;}
	.st17{fill:#EFDCD2;stroke:#383128;stroke-width:2;stroke-linecap:round;stroke-linejoin:round;stroke-miterlimit:10;}
	.st18{fill:#E45544;stroke:#3F291E;stroke-width:2;stroke-linecap:round;stroke-linejoin:round;stroke-miterlimit:10;}
	.st19{fill:#FFFFFF;stroke:#383128;stroke-width:2;stroke-linecap:round;stroke-linejoin:round;stroke-miterlimit:10;}
	.st20{fill:#81D4EF;stroke:#232E38;stroke-width:2;stroke-linecap:round;stroke-linejoin:round;stroke-miterlimit:10;}
	.st21{fill:#4B6D96;}

		.st22{fill-rule:evenodd;clip-rule:evenodd;fill:#81D4EF;stroke:#232E38;stroke-width:2;stroke-linecap:round;stroke-linejoin:round;stroke-miterlimit:10;}
	.st23{fill:#ABCFD3;stroke:#232E38;stroke-width:2;stroke-linecap:round;stroke-linejoin:round;stroke-miterlimit:10;}
	.st24{fill:#FFCC00;stroke:#383128;stroke-width:2;stroke-linecap:round;stroke-linejoin:round;stroke-miterlimit:10;}

		.st25{fill-rule:evenodd;clip-rule:evenodd;fill:#FFFFFF;stroke:#383128;stroke-width:2;stroke-linecap:round;stroke-linejoin:round;stroke-miterlimit:10;}
	.st26{fill-rule:evenodd;clip-rule:evenodd;fill:#A6ACB2;}

		.st27{fill-rule:evenodd;clip-rule:evenodd;fill:none;stroke:#505070;stroke-width:2;stroke-linecap:round;stroke-linejoin:round;stroke-miterlimit:10;}

		.st28{fill-rule:evenodd;clip-rule:evenodd;fill:none;stroke:#FFFFFF;stroke-width:2;stroke-linecap:round;stroke-linejoin:round;stroke-miterlimit:10;stroke-dasharray:0,3;}
	.st29{fill:none;stroke:#505070;stroke-width:2;stroke-linecap:round;stroke-linejoin:round;stroke-miterlimit:10;}
</style><circle class="st3" cx="45" cy="45" r="45"/><g><g><path class="st19" d="M74,45c-2.9629974,6.4628983-13.7163086,19-29,19S18.9629993,51.4628983,16,45    c2.9629993-6.4628983,13.7162933-19,29-19S71.0370026,38.5371017,74,45z"/></g><path class="st23" d="M58.3442917,46.7930984v-3.5861969l-3.0835991-1.0279007   c-0.2195015-0.7730026-0.525898-1.5090027-0.9096909-2.1965027l1.4535904-2.9069977l-2.5358009-2.5358009l-2.9069977,1.4536018   c-0.6875-0.3838997-1.4235001-0.6902008-2.1964989-0.9097023L47.137394,32h-3.5862007l-1.0279007,3.0835991   c-0.7729988,0.2195015-1.5089989,0.5258026-2.1964989,0.9097023l-2.9070015-1.4536018l-2.5357933,2.5358009l1.4535942,2.9069977   c-0.3838997,0.6875-0.6902008,1.4235001-0.9096985,2.1965027l-3.0836029,1.0279007v3.5861969l3.0836029,1.0279007   c0.2194977,0.7730026,0.5257988,1.5090027,0.9096985,2.1965027l-1.4535942,2.9069977l2.5357933,2.5358009l2.9070015-1.4536018   c0.6875,0.3838005,1.4235001,0.6902008,2.1964989,0.9097023L43.5511932,58h3.5862007l1.0279007-3.0835991   c0.7729988-0.2195015,1.5089989-0.5259018,2.1964989-0.9097023l2.9069977,1.4536018l2.5358009-2.5358009l-1.4535904-2.9069977   c0.3837929-0.6875,0.6901894-1.4235001,0.9096909-2.1965027L58.3442917,46.7930984z"/><circle class="st11" cx="45.3442917" cy="45" r="3"/></g></svg>
