<?xml version="1.0" ?><svg height="48px" id="Layer_1" style="enable-background:new 0 0 48 48;" version="1.1" viewBox="0 0 48 48" width="48px" xml:space="preserve" xmlns="http://www.w3.org/2000/svg" xmlns:xlink="http://www.w3.org/1999/xlink"><style type="text/css">
	.st0{fill:#000000;}
</style><path class="st0" d="M16,31.5v2c0,0.275-0.225,0.5-0.5,0.5h-1c-0.275,0-0.5-0.225-0.5-0.5v-2c0-0.275,0.225-0.5,0.5-0.5h1  C15.775,31,16,31.225,16,31.5z M7.5,27C7.775,27,8,26.775,8,26.5v-2C8,24.225,7.775,24,7.5,24h-1C6.225,24,6,24.225,6,24.5v2  C6,26.775,6.225,27,6.5,27H7.5z M20,28l20-0.0005c0.0001,5.1185-1.9525,10.2372-5.8579,14.1426C30.2368,46.0474,25.1184,48,20,48  S9.7632,46.0474,5.8579,42.1421c-7.8105-7.8104-7.8105-20.4738,0-28.2843C9.7629,9.9528,14.8812,8.0001,19.9995,8L20,28z M6.5,29h1  c1.3785,0,2.5-1.1216,2.5-2.5v-2c0-1.3785-1.1215-2.5-2.5-2.5h-1C5.1215,22,4,23.1215,4,24.5v2C4,27.8784,5.1215,29,6.5,29z   M7.832,35.6797l8-12l-1.6641-1.1094l-8,12L7.832,35.6797z M18,31.5c0-1.3785-1.1215-2.5-2.5-2.5h-1c-1.3785,0-2.5,1.1215-2.5,2.5v2  c0,1.3784,1.1215,2.5,2.5,2.5h1c1.3785,0,2.5-1.1216,2.5-2.5V31.5z M37.8909,29.9995L20,30l12.6146,10.8307  c0.0366-0.036,0.077-0.0665,0.1133-0.1028C35.6517,37.804,37.4459,34.0511,37.8909,29.9995z M44,0v24h-2V6h-4v18h-2V10h-4v14h-2V14  h-4v10h-2V0h-2v26h26V0H44z"/></svg>
