<?xml version="1.0" ?><svg height="30px" version="1.1" viewBox="0 0 30 30" width="30px" xmlns="http://www.w3.org/2000/svg" xmlns:sketch="http://www.bohemiancoding.com/sketch/ns" xmlns:xlink="http://www.w3.org/1999/xlink"><title/><desc/><defs/><g fill="none" fill-rule="evenodd" id="business" stroke="none" stroke-width="1"><g fill="#000000" id="business_026-network-connection-structure-organization-relation" transform="translate(-180.000000, -135.000000)"><g transform="translate(182.000000, 135.000000)"><path d="M8.20703249,16 C8.07216716,15.5231682 8,15.0200119 8,14.5 C8,13.9799881 8.07216716,13.4768318 8.20703249,13 L11.0668969,13 C11.0231495,13.4815193 11,13.9837308 11,14.5 C11,15.0162692 11.0231495,15.5184807 11.0668969,16 L8.20703249,16 Z M8.59970959,17 C9.29740189,18.3648261 10.5485282,19.3997451 12.05712,19.8087887 C11.6759544,19.1071943 11.3736595,18.1350809 11.1916013,17 L8.59970959,17 Z M18.7929675,16 C18.9278328,15.5231682 19,15.0200119 19,14.5 C19,13.9799881 18.9278328,13.4768318 18.7929675,13 L15.9331031,13 C15.9768505,13.4815193 16,13.9837308 16,14.5 C16,15.0162692 15.9768505,15.5184807 15.9331031,16 L18.7929675,16 Z M18.4002904,17 C17.7025981,18.3648261 16.4514718,19.3997451 14.9428799,19.8087887 C15.3240456,19.1071943 15.6263405,18.1350809 15.8083987,17 L18.4002904,17 Z M14.930439,16 C14.9749797,15.5258278 15,15.0232146 15,14.5 C15,13.9767854 14.9749797,13.4741722 14.930439,13 L12.069561,13 C12.0250203,13.4741722 12,13.9767854 12,14.5 C12,15.0232146 12.0250203,15.5258278 12.069561,16 L14.930439,16 Z M14.8021738,17 C14.505567,18.8041728 13.9341233,20 13.5,20 C13.0658767,20 12.494433,18.8041728 12.1978262,17 L14.8021738,17 Z M8.59970959,12 C9.29740189,10.6351739 10.5485282,9.60025491 12.0571201,9.19121135 C11.6759544,9.89280573 11.3736595,10.8649191 11.1916013,12 L8.59970959,12 Z M18.4002904,12 C17.7025981,10.6351739 16.4514718,9.60025491 14.94288,9.19121135 C15.3240456,9.89280573 15.6263405,10.8649191 15.8083987,12 L18.4002904,12 Z M14.8021738,12 C14.505567,10.1958272 13.9341233,9 13.5,9 C13.0658767,9 12.494433,10.1958272 12.1978262,12 L14.8021738,12 Z" id="shape"/><path d="M12.75,3.19999695 L14.25,3.19999695 C15.4206075,3.19999695 16,3.8662983 16,4.66249691 L16,4.9999969 L11,4.9999969 L11,4.66249691 C11,3.8662983 11.5793925,3.19999695 12.75,3.19999695 Z" id="shape"/><circle cx="13.4999969" cy="25.3" id="shape" r="1.29999995"/><circle cx="13.4999969" cy="1.29999995" id="shape" r="1.29999995"/><path d="M12.75,27.1999969 L14.25,27.1999969 C15.4206075,27.1999969 16,27.8662983 16,28.6624969 L16,28.9999969 L11,28.9999969 L11,28.6624969 C11,27.8662983 11.5793925,27.1999969 12.75,27.1999969 Z" id="shape"/><circle cx="24.4999969" cy="19.3" id="shape" r="1.29999995"/><path d="M23.75,21.1999969 L25.25,21.1999969 C26.4206075,21.1999969 27,21.8662983 27,22.6624969 L27,22.9999969 L22,22.9999969 L22,22.6624969 C22,21.8662983 22.5793925,21.1999969 23.75,21.1999969 Z" id="shape"/><circle cx="24.4999969" cy="6.29999995" id="shape" r="1.29999995"/><path d="M23.75,8.19999695 L25.25,8.19999695 C26.4206075,8.19999695 27,8.8662983 27,9.66249691 L27,9.9999969 L22,9.9999969 L22,9.66249691 C22,8.8662983 22.5793925,8.19999695 23.75,8.19999695 Z" id="shape"/><circle cx="2.4999969" cy="19.3" id="shape" r="1.29999995"/><path d="M1.75,21.1999969 L3.25,21.1999969 C4.42060751,21.1999969 5,21.8662983 5,22.6624969 L5,22.9999969 L0,22.9999969 L0,22.6624969 C0,21.8662983 0.579392491,21.1999969 1.75,21.1999969 Z" id="shape"/><circle cx="2.4999969" cy="6.29999995" id="shape" r="1.29999995"/><path d="M1.75,8.19999695 L3.25,8.19999695 C4.42060751,8.19999695 5,8.8662983 5,9.66249691 L5,9.9999969 L0,9.9999969 L0,9.66249691 C0,8.8662983 0.579392491,8.19999695 1.75,8.19999695 Z" id="shape"/><path d="M13,7.5 C13,7.77614237 13.2238576,8 13.5,8 C13.7761424,8 14,7.77614237 14,7.5 L14,6.5 C14,6.22385763 13.7761424,6 13.5,6 C13.2238576,6 13,6.22385763 13,6.5 L13,7.5 Z M19.3121778,10.5669873 C19.0730315,10.7050585 18.9910939,11.0108537 19.1291651,11.25 C19.2672363,11.4891463 19.5730315,11.5710839 19.8121778,11.4330127 L20.6782032,10.9330127 C20.9173495,10.7949415 20.9992871,10.4891463 20.8612159,10.25 C20.7231447,10.0108537 20.4173495,9.92891611 20.1782032,10.0669873 L19.3121778,10.5669873 Z M19.8121778,17.5669873 C19.5730315,17.4289161 19.2672363,17.5108537 19.1291651,17.75 C18.9910939,17.9891463 19.0730315,18.2949415 19.3121778,18.4330127 L20.1782032,18.9330127 C20.4173495,19.0710839 20.7231447,18.9891463 20.8612159,18.75 C20.9992871,18.5108537 20.9173495,18.2050585 20.6782032,18.0669873 L19.8121778,17.5669873 Z M14,21.5 C14,21.2238576 13.7761424,21 13.5,21 C13.2238576,21 13,21.2238576 13,21.5 L13,22.5 C13,22.7761424 13.2238576,23 13.5,23 C13.7761424,23 14,22.7761424 14,22.5 L14,21.5 Z M7.68782217,18.4330127 C7.92696849,18.2949415 8.00890606,17.9891463 7.87083488,17.75 C7.73276369,17.5108537 7.42696849,17.4289161 7.18782217,17.5669873 L6.32179677,18.0669873 C6.08265046,18.2050585 6.00071288,18.5108537 6.13878407,18.75 C6.27685526,18.9891463 6.58265046,19.0710839 6.82179677,18.9330127 L7.68782217,18.4330127 Z M7.18782217,11.4330127 C7.42696849,11.5710839 7.73276369,11.4891463 7.87083488,11.25 C8.00890606,11.0108537 7.92696849,10.7050585 7.68782217,10.5669873 L6.82179677,10.0669873 C6.58265046,9.92891611 6.27685526,10.0108537 6.13878407,10.25 C6.00071288,10.4891463 6.08265046,10.7949415 6.32179677,10.9330127 L7.18782217,11.4330127 Z" id="shape"/></g></g></g></svg>