<?xml version="1.0" ?><!DOCTYPE svg  PUBLIC '-//W3C//DTD SVG 1.1//EN'  'http://www.w3.org/Graphics/SVG/1.1/DTD/svg11.dtd'><svg enable-background="new -78 -78 256 256" height="256px" id="Layer_1" version="1.1" viewBox="-78 -78 256 256" width="256px" xml:space="preserve" xmlns="http://www.w3.org/2000/svg" xmlns:xlink="http://www.w3.org/1999/xlink"><g><polygon points="49.352,6.485 49.352,6.485 49.366,6.485  "/><path d="M143.866,46.86l-34.039-7.395c-0.971-0.3-1.671-1.189-1.671-2.248c0-0.83,0.434-1.53,1.071-1.959l27.379-17.669   l-0.012-0.019c0.666-0.419,1.115-1.15,1.115-1.999c0-1.297-1.062-2.369-2.365-2.369c-0.165,0-0.338,0.021-0.494,0.052   l-30.142,4.836c-0.101,0.012-0.206,0.031-0.312,0.031c-1.305,0-2.365-1.07-2.365-2.367c0-0.462,0.13-0.889,0.355-1.25l0,0   l19.578-30.212c0.036-0.059,0.026-0.059,0.026-0.059h-0.005c0.197-0.352,0.321-0.739,0.321-1.179c0-1.299-1.055-2.357-2.359-2.357   c-0.537,0-1.021,0.18-1.415,0.479L86.436,0.594c-0.353,0.208-0.751,0.329-1.188,0.329c-1.305,0-2.36-1.06-2.36-2.368   c0-0.152,0.024-0.309,0.051-0.461l9.253-38.408h-0.01c0.041-0.157,0.056-0.319,0.056-0.488c0-1.31-1.056-2.367-2.365-2.367   c-0.899,0-1.674,0.509-2.067,1.25L64.693-9.24l-0.005-0.012c-0.432,0.598-1.132,0.989-1.919,0.989c-1.165,0-2.127-0.85-2.324-1.959   l-8.748-61.47c-0.131-1.188-1.123-2.109-2.341-2.109c-1.218,0-2.208,0.921-2.337,2.109l-8.746,61.467   c-0.194,1.11-1.16,1.96-2.329,1.96c-0.788,0-1.486-0.391-1.917-0.989v0.012l-23.109-32.68c-0.396-0.742-1.169-1.25-2.076-1.25   c-1.301,0-2.358,1.058-2.358,2.367c0,0.169,0.016,0.331,0.052,0.488h-0.01l9.259,38.408c0.032,0.152,0.054,0.31,0.054,0.462   c0,1.307-1.062,2.367-2.368,2.367c-0.438,0-0.84-0.12-1.188-0.329l-32.101-19.418c-0.388-0.299-0.877-0.479-1.407-0.479   c-1.31,0-2.371,1.059-2.371,2.358c0,0.442,0.133,0.83,0.328,1.179h-0.005c0,0-0.012,0,0.029,0.059l19.58,30.212l0,0   c0.218,0.358,0.352,0.788,0.352,1.25c0,1.297-1.062,2.367-2.36,2.367c-0.11,0-0.208-0.019-0.309-0.031l-30.151-4.836   c-0.157-0.031-0.319-0.052-0.488-0.052c-1.31,0-2.37,1.071-2.37,2.369c0,0.852,0.451,1.582,1.114,1.999l-0.004,0.02l27.377,17.668   c0.634,0.431,1.064,1.131,1.064,1.961c0,1.058-0.698,1.947-1.662,2.247l-34.044,7.397c-1.134,0.18-2.004,1.152-2.004,2.329   c0,1.173,0.857,2.128,1.97,2.319l30.689,7.215l-0.009,0.01c1.083,0.211,1.898,1.17,1.898,2.307c0,0.931-0.53,1.723-1.299,2.108   l-25.629,13.535c-0.879,0.35-1.505,1.196-1.505,2.196c0,1.31,1.06,2.37,2.365,2.37c0.005,0,0.005,0,0.014,0v0.01l31.38-0.168   h-0.007c1.305,0,2.366,1.058,2.366,2.367c0,0.513-0.17,0.98-0.447,1.372l-13.316,16.367c-0.43,0.434-0.698,1.021-0.698,1.681   c0,1.298,1.059,2.36,2.362,2.36c0.047,0,23.109-2.787,23.109-2.787c0.115-0.012,0.235-0.021,0.351-0.021   c1.309,0,2.37,1.058,2.37,2.355c0,0.242-0.052,0.47-0.115,0.69l-9.341,23.063c-0.164,0.324-0.258,0.682-0.258,1.062   c0,1.3,1.054,2.36,2.357,2.36c0.501,0,0.961-0.153,1.341-0.412l22.974-13.369c1.199-0.639,2.027-1.899,2.027-3.349   c0-0.249-0.03-0.499-0.068-0.729l0,0c0-0.01,0-0.02-0.006-0.029c0-0.015-0.005-0.024-0.005-0.033   c-1.417-8.028-6.628-15.02-11.955-20.006l-1.057-1.012C5.227,83.909-0.304,70.929-0.304,56.494c0-27.499,22.2-49.805,49.658-50.004   h0.014c27.454,0.199,49.659,22.505,49.659,50.004c0,14.435-5.536,27.415-15.02,36.529l-1.05,1.012   c-5.325,4.984-10.539,11.978-11.964,20.006c0,0.009,0,0.019,0,0.033c-0.005,0.01-0.01,0.02-0.01,0.029h0.005   c-0.046,0.229-0.069,0.479-0.069,0.729c0,1.449,0.83,2.713,2.031,3.349l22.97,13.369c0.384,0.256,0.84,0.412,1.339,0.412   c1.31,0,2.364-1.061,2.364-2.36c0-0.379-0.096-0.738-0.259-1.062l-9.34-23.063c-0.071-0.221-0.114-0.453-0.114-0.69   c0-1.298,1.055-2.355,2.364-2.355c0.12,0,0.235,0.01,0.351,0.021c0,0,23.065,2.787,23.108,2.787c1.303,0,2.363-1.062,2.363-2.36   c0-0.659-0.269-1.247-0.7-1.681L104.081,84.83c-0.273-0.387-0.441-0.859-0.441-1.372c0-1.31,1.056-2.367,2.364-2.367h-0.009   l31.381,0.168l0.005-0.01c0.005,0,0.005,0,0.015,0c1.305,0,2.364-1.061,2.364-2.37c0-0.997-0.623-1.847-1.506-2.196l-25.63-13.535   c-0.772-0.386-1.3-1.178-1.3-2.108c0-1.137,0.82-2.099,1.904-2.307l-0.02-0.01l30.691-7.215c1.122-0.191,1.971-1.151,1.971-2.319   C145.867,48.012,144.998,47.04,143.866,46.86z"/></g><g><polygon points="61.278,131.114 58.051,131.114 58.051,134.413 61.278,133.991  "/><path d="M61.278,150.421v-1.572l11.11-1.497c0.886-0.121,1.507-0.942,1.391-1.822c-0.122-0.887-0.935-1.505-1.824-1.386   l-28.325,3.688c-0.891,0.117-1.702-0.501-1.825-1.387c-0.116-0.887,0.504-1.702,1.391-1.817l10.61-1.433v-1.557l4.245-0.572v1.573   l3.228-0.429v-1.579l11.11-1.498c0.886-0.121,1.507-0.942,1.391-1.822c-0.122-0.887-0.935-1.505-1.824-1.385l-28.325,3.69   c-0.891,0.119-1.702-0.499-1.825-1.386c-0.116-0.881,0.504-1.701,1.391-1.822l10.61-1.438v-3.859l-24.687,0.005v7.287l-0.522,0.096   c-1.081,0.149-1.832,1.136-1.691,2.217c0.143,1.077,1.133,1.834,2.214,1.696v4.202l-0.522,0.103   c-1.081,0.151-1.832,1.148-1.691,2.219c0.143,1.079,1.133,1.839,2.214,1.691v4.219l-0.522,0.099   c-1.081,0.139-1.832,1.136-1.691,2.218c0.143,1.069,1.133,1.83,2.214,1.678v0.009v4.031l5.206,5.068h8.2   c0.095,2.241,3.172,4.041,6.944,4.041c3.777,0,6.844-1.8,6.947-4.041h8.65l5.178-5.025l-0.021-7.062l2.164-0.291   c0.887-0.121,1.507-0.943,1.39-1.822c-0.121-0.889-0.934-1.505-1.824-1.386v-0.004l-28.324,3.692   c-0.89,0.123-1.702-0.496-1.825-1.377c-0.117-0.898,0.505-1.709,1.39-1.831l10.611-1.426v-1.565l4.245-0.57v1.574L61.278,150.421z    M37.298,137.204c0.921,0,1.668,0.754,1.668,1.669s-0.747,1.664-1.668,1.664c-0.923,0-1.668-0.747-1.668-1.664   C35.63,137.957,36.375,137.204,37.298,137.204z M37.298,156.983c-0.923,0-1.668-0.747-1.668-1.673c0-0.915,0.745-1.667,1.668-1.667   c0.921,0,1.668,0.752,1.668,1.667C38.966,156.236,38.219,156.983,37.298,156.983z M37.36,148.75c-0.921,0-1.67-0.738-1.67-1.656   c0-0.917,0.749-1.668,1.67-1.668c0.926,0,1.667,0.752,1.667,1.668S38.286,148.75,37.36,148.75z"/></g></svg>