<?xml version="1.0" ?><!DOCTYPE svg  PUBLIC '-//W3C//DTD SVG 1.1//EN'  'http://www.w3.org/Graphics/SVG/1.1/DTD/svg11.dtd'><svg enable-background="new 0 0 256 256" height="256px" id="Layer_1" version="1.1" viewBox="0 0 256 256" width="256px" xml:space="preserve" xmlns="http://www.w3.org/2000/svg" xmlns:xlink="http://www.w3.org/1999/xlink"><g><g><path clip-rule="evenodd" d="M131.21,191.638l3.452-58.994     c-2.184,0.352-4.429,0.527-6.66,0.527c-2.236,0-4.483-0.176-6.665-0.527l3.457,58.994h-4.268l-3.506-59.932     c-8.408-2.393-14.873-7.676-14.873-15.889c0-4.062,2.192-6.836,5.059-8.174c1.167-0.537,2.46-0.84,3.769-0.869     c1.304-0.039,2.617,0.186,3.818,0.674c2.944,1.191,5.303,3.906,5.552,8.252l0.737,12.588c2.227,0.41,4.57,0.615,6.919,0.615     c2.349,0,4.692-0.205,6.919-0.615l0.737-12.588c0.249-4.346,2.612-7.061,5.552-8.252c1.201-0.488,2.515-0.713,3.818-0.674     c1.309,0.029,2.603,0.332,3.765,0.869c2.871,1.338,5.063,4.111,5.063,8.174c0,8.223-6.465,13.506-14.873,15.889l-3.506,59.932     H131.21L131.21,191.638z M116.752,127.155l-0.659-11.221c-0.137-2.432-1.367-3.916-2.9-4.541c-0.664-0.264-1.387-0.391-2.1-0.371     c-0.708,0.02-1.426,0.186-2.08,0.498c-1.475,0.684-2.598,2.139-2.598,4.297C106.415,121.335,110.81,125.135,116.752,127.155     L116.752,127.155z M139.252,127.155c5.942-2.02,10.337-5.82,10.337-11.338c0-2.158-1.128-3.613-2.598-4.297     c-0.654-0.312-1.372-0.479-2.08-0.498c-0.714-0.02-1.436,0.107-2.1,0.371c-1.533,0.625-2.764,2.109-2.9,4.541L139.252,127.155     L139.252,127.155z" fill="#323232" fill-rule="evenodd"/><path clip-rule="evenodd" d="M146.537,209.44h-37.075c-3.037,0-5.498-2.461-5.498-5.498     c0-41.572-30.552-47.695-30.552-88.047c0-48.457,58.882-72.9,93.188-38.594c9.878,9.873,15.986,23.525,15.986,38.594     c0,40.352-30.547,46.475-30.547,88.047C152.04,206.98,149.574,209.44,146.537,209.44L146.537,209.44z M140.36,198.649     c0.556,0,1.016-0.42,1.064-0.977l0.171-1.953c0.894-10.195,3.628-19.229,8.374-28.271c3.853-7.344,8.691-13.984,12.881-21.104     c5.791-9.854,8.94-18.877,8.94-30.449c0-11.65-4.59-22.725-12.827-30.957c-27.471-27.471-74.756-7.891-74.756,30.957     c0,11.572,3.154,20.596,8.945,30.449c4.189,7.119,9.023,13.76,12.881,21.113c4.746,9.033,7.48,18.066,8.374,28.262l0.171,1.953     c0.049,0.557,0.503,0.977,1.06,0.977C123.881,198.649,132.118,198.649,140.36,198.649L140.36,198.649z" fill="#323232" fill-rule="evenodd"/><path clip-rule="evenodd" d="M132.025,47.058c-0.332,5.957-6.758,5.957-7.124,0     l-1.587-28.173c-0.454-8.048,10.757-8.048,10.303,0L132.025,47.058L132.025,47.058z" fill="#323232" fill-rule="evenodd"/><path clip-rule="evenodd" d="M180.009,69.89c-4.448,3.965-8.994-0.576-5.039-5.039     l18.799-21.055c5.371-6.006,13.291,1.924,7.285,7.285L180.009,69.89L180.009,69.89z" fill="#323232" fill-rule="evenodd"/><path clip-rule="evenodd" d="M75.673,70.397c4.443,3.975,8.989-0.566,5.039-5.029     L61.908,44.313c-5.367-6.006-13.291,1.924-7.285,7.285L75.673,70.397L75.673,70.397z" fill="#323232" fill-rule="evenodd"/><path clip-rule="evenodd" d="M58.051,121.062c5.952-0.332,5.952-6.758,0-7.119l-28.179-1.592     c-8.047-0.449-8.042,10.752,0,10.303L58.051,121.062L58.051,121.062z" fill="#323232" fill-rule="evenodd"/><path clip-rule="evenodd" d="M197.948,121.062c-5.947-0.332-5.952-6.758,0-7.119     l28.184-1.592c8.042-0.449,8.037,10.752,0,10.303L197.948,121.062L197.948,121.062z" fill="#323232" fill-rule="evenodd"/><path clip-rule="evenodd" d="M179.672,164.323c-4.443-3.965-8.989,0.576-5.034,5.039     l18.799,21.055c5.366,6.006,13.291-1.924,7.285-7.285L179.672,164.323L179.672,164.323z" fill="#323232" fill-rule="evenodd"/><path clip-rule="evenodd" d="M76.327,164.323c4.443-3.965,8.994,0.576,5.039,5.039     l-18.799,21.055c-5.371,6.006-13.291-1.924-7.285-7.285L76.327,164.323L76.327,164.323z" fill="#323232" fill-rule="evenodd"/><path clip-rule="evenodd" d="M118.563,243.151c-3.037,0-5.503-2.471-5.503-5.508     c0-1.035,0.288-2.012,0.796-2.852h-4.395c-3.037,0-5.498-2.461-5.498-5.498c0-1.67,0.747-3.174,1.924-4.18     c-1.177-1.006-1.924-2.51-1.924-4.17c0-3.037,2.461-5.508,5.498-5.508h37.075c3.037,0,5.503,2.471,5.503,5.508     c0,1.66-0.747,3.164-1.924,4.17c1.177,1.006,1.924,2.51,1.924,4.18c0,3.037-2.466,5.498-5.503,5.498h-4.395     c0.508,0.84,0.796,1.816,0.796,2.852c0,3.037-2.461,5.508-5.498,5.508H118.563L118.563,243.151z" fill="#323232" fill-rule="evenodd"/></g></g></svg>