<?xml version="1.0" encoding="UTF-8" standalone="no"?>
<svg width="210px" height="232px" viewBox="0 0 210 232" version="1.1" xmlns="http://www.w3.org/2000/svg" xmlns:xlink="http://www.w3.org/1999/xlink" xmlns:sketch="http://www.bohemiancoding.com/sketch/ns">
    <!-- Generator: Sketch 3.4.2 (15855) - http://www.bohemiancoding.com/sketch -->
    <title>Untitled 2</title>
    <desc>Created with Sketch.</desc>
    <defs></defs>
    <g id="Page-1" stroke="none" stroke-width="1" fill="none" fill-rule="evenodd" sketch:type="MSPage">
        <g id="idea" sketch:type="MSLayerGroup" fill="#000000">
            <g id="Group" sketch:type="MSShapeGroup">
                <path d="M108.21,179.638 L111.662,120.644 C109.478,120.996 107.233,121.171 105.002,121.171 C102.766,121.171 100.519,120.995 98.337,120.644 L101.794,179.638 L97.526,179.638 L94.02,119.706 C85.612,117.313 79.147,112.03 79.147,103.817 C79.147,99.755 81.339,96.981 84.206,95.643 C85.373,95.106 86.666,94.803 87.975,94.774 C89.279,94.735 90.592,94.96 91.793,95.448 C94.737,96.639 97.096,99.354 97.345,103.7 L98.082,116.288 C100.309,116.698 102.652,116.903 105.001,116.903 C107.35,116.903 109.693,116.698 111.92,116.288 L112.657,103.7 C112.906,99.354 115.269,96.639 118.209,95.448 C119.41,94.96 120.724,94.735 122.027,94.774 C123.336,94.803 124.63,95.106 125.792,95.643 C128.663,96.981 130.855,99.754 130.855,103.817 C130.855,112.04 124.39,117.323 115.982,119.706 L112.476,179.638 L108.21,179.638 L108.21,179.638 L108.21,179.638 Z M93.752,115.155 L93.093,103.934 C92.956,101.502 91.726,100.018 90.193,99.393 C89.529,99.129 88.806,99.002 88.093,99.022 C87.385,99.042 86.667,99.208 86.013,99.52 C84.538,100.204 83.415,101.659 83.415,103.817 C83.415,109.335 87.81,113.135 93.752,115.155 L93.752,115.155 L93.752,115.155 Z M116.252,115.155 C122.194,113.135 126.589,109.335 126.589,103.817 C126.589,101.659 125.461,100.204 123.991,99.52 C123.337,99.208 122.619,99.041 121.911,99.022 C121.197,99.002 120.475,99.129 119.811,99.393 C118.278,100.018 117.047,101.502 116.911,103.934 L116.252,115.155 L116.252,115.155 L116.252,115.155 Z" id="Shape"></path>
                <path d="M123.537,197.44 L86.462,197.44 C83.425,197.44 80.964,194.979 80.964,191.942 C80.964,150.37 50.412,144.247 50.412,103.895 C50.412,55.438 109.294,30.995 143.6,65.301 C153.478,75.174 159.586,88.826 159.586,103.895 C159.586,144.247 129.039,150.37 129.039,191.942 C129.04,194.98 126.574,197.44 123.537,197.44 L123.537,197.44 L123.537,197.44 Z M117.36,186.649 C117.916,186.649 118.376,186.229 118.424,185.672 L118.595,183.719 C119.489,173.524 122.223,164.49 126.969,155.448 C130.822,148.104 135.66,141.464 139.85,134.344 C145.641,124.49 148.79,115.467 148.79,103.895 C148.79,92.245 144.2,81.17 135.963,72.938 C108.492,45.467 61.207,65.047 61.207,103.895 C61.207,115.467 64.361,124.491 70.152,134.344 C74.341,141.463 79.175,148.104 83.033,155.457 C87.779,164.49 90.513,173.523 91.407,183.719 L91.578,185.672 C91.627,186.229 92.081,186.649 92.638,186.649 L117.36,186.649 L117.36,186.649 L117.36,186.649 Z" id="Shape"></path>
                <path d="M109.025,35.058 C108.693,41.015 102.267,41.015 101.901,35.058 L100.314,6.885 C99.86,-1.163 111.071,-1.163 110.617,6.885 L109.025,35.058 L109.025,35.058 L109.025,35.058 Z" id="Shape"></path>
                <path d="M157.009,57.89 C152.561,61.855 148.015,57.314 151.97,52.851 L170.769,31.796 C176.14,25.79 184.06,33.72 178.054,39.081 L157.009,57.89 L157.009,57.89 L157.009,57.89 Z" id="Shape"></path>
                <path d="M52.673,58.397 C57.116,62.372 61.662,57.831 57.712,53.368 L38.908,32.313 C33.541,26.307 25.617,34.237 31.623,39.598 L52.673,58.397 L52.673,58.397 L52.673,58.397 Z" id="Shape"></path>
                <path d="M35.051,109.062 C41.003,108.73 41.003,102.304 35.051,101.943 L6.872,100.351 C-1.175,99.902 -1.17,111.103 6.872,110.654 L35.051,109.062 L35.051,109.062 L35.051,109.062 Z" id="Shape"></path>
                <path d="M174.948,109.062 C169.001,108.73 168.996,102.304 174.948,101.943 L203.132,100.351 C211.174,99.902 211.169,111.103 203.132,110.654 L174.948,109.062 L174.948,109.062 L174.948,109.062 Z" id="Shape"></path>
                <path d="M156.672,152.323 C152.229,148.358 147.683,152.899 151.638,157.362 L170.437,178.417 C175.803,184.423 183.728,176.493 177.722,171.132 L156.672,152.323 L156.672,152.323 L156.672,152.323 Z" id="Shape"></path>
                <path d="M53.327,152.323 C57.77,148.358 62.321,152.899 58.366,157.362 L39.567,178.417 C34.196,184.423 26.276,176.493 32.282,171.132 L53.327,152.323 L53.327,152.323 L53.327,152.323 Z" id="Shape"></path>
                <path d="M95.563,231.151 C92.526,231.151 90.06,228.68 90.06,225.643 C90.06,224.608 90.348,223.631 90.856,222.791 L86.461,222.791 C83.424,222.791 80.963,220.33 80.963,217.293 C80.963,215.623 81.71,214.119 82.887,213.113 C81.71,212.107 80.963,210.603 80.963,208.943 C80.963,205.906 83.424,203.435 86.461,203.435 L123.536,203.435 C126.573,203.435 129.039,205.906 129.039,208.943 C129.039,210.603 128.292,212.107 127.115,213.113 C128.292,214.119 129.039,215.623 129.039,217.293 C129.039,220.33 126.573,222.791 123.536,222.791 L119.141,222.791 C119.649,223.631 119.937,224.607 119.937,225.643 C119.937,228.68 117.476,231.151 114.439,231.151 L95.563,231.151 L95.563,231.151 L95.563,231.151 Z" id="Shape"></path>
            </g>
        </g>
    </g>
</svg>