<?xml version="1.0" encoding="UTF-8" standalone="no"?>
<svg width="74px" height="126px" viewBox="0 0 74 126" version="1.1" xmlns="http://www.w3.org/2000/svg" xmlns:xlink="http://www.w3.org/1999/xlink" xmlns:sketch="http://www.bohemiancoding.com/sketch/ns">
    <!-- Generator: Sketch 3.4.2 (15855) - http://www.bohemiancoding.com/sketch -->
    <title>launch</title>
    <desc>Created with Sketch.</desc>
    <defs></defs>
    <g id="Page-1" stroke="none" stroke-width="1" fill="none" fill-rule="evenodd" sketch:type="MSPage">
        <g id="launch" sketch:type="MSLayerGroup" fill="#000000">
            <g id="Group" sketch:type="MSShapeGroup">
                <path d="M37,47.7 C42.1,47.7 46.2,43.6 46.2,38.5 C46.2,33.4 42.1,29.3 37,29.3 C31.9,29.3 27.8,33.4 27.8,38.5 C27.8,43.6 31.9,47.7 37,47.7 L37,47.7 Z M37,34.4 C39.3,34.4 41.2,36.3 41.2,38.6 C41.2,40.9 39.3,42.8 37,42.8 C34.7,42.8 32.8,40.9 32.8,38.6 C32.8,36.3 34.7,34.4 37,34.4 L37,34.4 Z" id="Shape"></path>
                <path d="M70.3,83.8 L60.6,74.1 C69.4,49.1 62.1,20.6 40.8,2.9 L38.6,1.1 C37.7,0.4 36.4,0.3 35.5,1 C12.7,18.3 4.5,48.1 13.5,74.1 L3.7,83.9 C-0.7,88.3 -0.7,95.6 3.7,100 L6.3,102.6 C6.8,103.1 7.4,103.3 8.1,103.3 C8.5,103.3 8.9,103.2 9.2,103 L26.5,94.4 L47.5,94.4 L64.8,103 C65.2,103.2 65.5,103.3 65.9,103.3 C66.5,103.3 67.2,103 67.7,102.6 L70.3,100 C74.7,95.5 74.7,88.3 70.3,83.8 L70.3,83.8 Z M37,6.2 L37.6,6.7 C57.6,23.4 64.2,50.3 55.4,73.7 C55.4,73.8 55.3,73.9 55.3,74 C53.7,78.3 51.5,82.5 48.8,86.5 L46.8,89.4 L39.5,89.4 L39.5,74.1 C39.5,72.7 38.4,71.6 37,71.6 C35.6,71.6 34.5,72.7 34.5,74.1 L34.5,89.4 L27.2,89.4 L25,86 C7.8,60.3 13.2,25.6 37,6.2 L37,6.2 Z M8.6,97.7 L7.3,96.4 C4.8,93.9 4.8,89.9 7.3,87.4 L15.5,79.2 C17,82.5 18.7,85.7 20.8,88.8 L22.2,91 L8.6,97.7 L8.6,97.7 Z M66.7,96.4 L65.4,97.7 L51.8,90.9 L52.9,89.3 C55.1,86 57,82.7 58.5,79.2 L66.7,87.4 C69.2,89.9 69.2,93.9 66.7,96.4 L66.7,96.4 Z" id="Shape"></path>
                <path d="M42.9,98.5 C42.6,98.3 42.2,98.3 41.9,98.3 L32.1,98.3 C31.7,98.3 31.4,98.4 31.1,98.5 C27.7,100.1 25.3,103.1 24.6,106.8 C23.9,110.5 25,114.2 27.7,116.9 L35.3,124.7 C35.8,125.2 36.4,125.5 37.1,125.5 C37.8,125.5 38.4,125.2 38.9,124.7 L46.5,116.9 C49.1,114.2 50.3,110.5 49.6,106.8 C48.7,103.1 46.4,100.1 42.9,98.5 L42.9,98.5 Z M42.8,113.5 L37,119.4 L31.2,113.5 C29.7,112 29.1,109.9 29.5,107.8 C29.9,105.9 31,104.3 32.7,103.3 L41.3,103.3 C43,104.2 44.2,105.9 44.5,107.8 C44.9,109.9 44.3,112 42.8,113.5 L42.8,113.5 Z" id="Shape"></path>
            </g>
        </g>
    </g>
</svg>