<?xml version="1.0" ?><!DOCTYPE svg  PUBLIC '-//W3C//DTD SVG 1.1//EN'  'http://www.w3.org/Graphics/SVG/1.1/DTD/svg11.dtd'><svg enable-background="new 0 0 128 128" id="Слой_1" version="1.1" viewBox="0 0 128 128" xml:space="preserve" xmlns="http://www.w3.org/2000/svg" xmlns:xlink="http://www.w3.org/1999/xlink"><g><path d="M64,48.7c5.1,0,9.2-4.1,9.2-9.2c0-5.1-4.1-9.2-9.2-9.2s-9.2,4.1-9.2,9.2C54.8,44.6,58.9,48.7,64,48.7z    M64,35.4c2.3,0,4.2,1.9,4.2,4.2c0,2.3-1.9,4.2-4.2,4.2s-4.2-1.9-4.2-4.2C59.8,37.3,61.7,35.4,64,35.4z" fill="#4A374F"/><path d="M97.3,84.8l-9.7-9.7c8.8-25,1.5-53.5-19.8-71.2l-2.2-1.8c-0.9-0.7-2.2-0.8-3.1-0.1   c-22.8,17.3-31,47.1-22,73.1l-9.8,9.8c-4.4,4.4-4.4,11.7,0,16.1l2.6,2.6c0.5,0.5,1.1,0.7,1.8,0.7c0.4,0,0.8-0.1,1.1-0.3l17.3-8.6   h21l17.3,8.6c0.4,0.2,0.7,0.3,1.1,0.3c0.6,0,1.3-0.3,1.8-0.7l2.6-2.6C101.7,96.5,101.7,89.3,97.3,84.8z M64,7.2l0.6,0.5   c20,16.7,26.6,43.6,17.8,67c0,0.1-0.1,0.2-0.1,0.3c-1.6,4.3-3.8,8.5-6.5,12.5l-2,2.9h-7.3l0-15.3c0-1.4-1.1-2.5-2.5-2.5   s-2.5,1.1-2.5,2.5l0,15.3h-7.3L52,87C34.8,61.3,40.2,26.6,64,7.2z M35.6,98.7l-1.3-1.3c-2.5-2.5-2.5-6.5,0-9l8.2-8.2   c1.5,3.3,3.2,6.5,5.3,9.6l1.4,2.2L35.6,98.7z M93.7,97.4l-1.3,1.3l-13.6-6.8l1.1-1.6c2.2-3.3,4.1-6.6,5.6-10.1l8.2,8.2   C96.2,90.9,96.2,94.9,93.7,97.4z" fill="#4A374F"/><path d="M69.9,99.5c-0.3-0.2-0.7-0.2-1-0.2h-9.8c-0.4,0-0.7,0.1-1,0.2c-3.4,1.6-5.8,4.6-6.5,8.3   c-0.7,3.7,0.4,7.4,3.1,10.1l7.6,7.8c0.5,0.5,1.1,0.8,1.8,0.8s1.3-0.3,1.8-0.8l7.6-7.8c2.6-2.7,3.8-6.4,3.1-10.1   C75.7,104.1,73.4,101.1,69.9,99.5z M69.8,114.5l-5.8,5.9l-5.8-5.9c-1.5-1.5-2.1-3.6-1.7-5.7c0.4-1.9,1.5-3.5,3.2-4.5h8.6   c1.7,0.9,2.9,2.6,3.2,4.5C71.9,110.9,71.3,113,69.8,114.5z" fill="#4A374F"/></g></svg>