<?xml version="1.0" encoding="UTF-8" standalone="no"?>
<svg width="48px" height="48px" viewBox="0 0 48 48" version="1.1" xmlns="http://www.w3.org/2000/svg" xmlns:xlink="http://www.w3.org/1999/xlink" xmlns:sketch="http://www.bohemiancoding.com/sketch/ns">
    <!-- Generator: Sketch 3.4.2 (15855) - http://www.bohemiancoding.com/sketch -->
    <title>market_research</title>
    <desc>Created with Sketch.</desc>
    <defs></defs>
    <g id="Page-1" stroke="none" stroke-width="1" fill="none" fill-rule="evenodd" sketch:type="MSPage">
        <g id="market_research" sketch:type="MSLayerGroup" fill="#000000">
            <path d="M20,18 L18,18 L18,14 L20,14 L20,18 L20,18 Z M24,18 L24,12 L22,12 L22,18 L24,18 L24,18 Z M28,18 L28,8 L26,8 L26,18 L28,18 L28,18 Z M32,18 L32,6 L30,6 L30,18 L32,18 L32,18 Z M20,24 L6,24 L6,26 L20,26 L20,24 L20,24 Z M20,28 L6,28 L6,30 L20,30 L20,28 L20,28 Z M20,32 L6,32 L6,34 L20,34 L20,32 L20,32 Z M4.1008,11 L9,11 L9,6.1008 C6.4917,6.5239 4.5239,8.4917 4.1008,11 L4.1008,11 Z M16,12 C16,9.0288 13.8352,6.5791 11,6.1008 L11,11.5859 L14.882,15.4679 C15.5801,14.4872 16,13.2954 16,12 L16,12 Z M10,18 C11.2954,18 12.4872,17.5801 13.4679,16.882 L9.5859,13 L4.1008,13 C4.5791,15.8352 7.0288,18 10,18 L10,18 Z M47.2969,47.2969 C46.8281,47.7656 46.2141,48 45.6,48 C44.986,48 44.3719,47.7656 43.9031,47.2969 L38.4694,41.8631 C37.0405,42.707 35.3796,43.2 33.6,43.2 C28.2981,43.2 24,38.902 24,33.6 C24,28.298 28.2981,24 33.6,24 C38.902,24 43.2,28.298 43.2,33.6 C43.2,35.3797 42.7071,37.0406 41.8631,38.4694 L47.2969,43.9031 C48.2344,44.8406 48.2344,46.3594 47.2969,47.2969 L47.2969,47.2969 Z M40.8,33.6 C40.8,29.6299 37.57,26.4 33.5999,26.4 C29.6298,26.4 26.3999,29.6299 26.3999,33.6 C26.3999,37.5701 29.6298,40.8 33.5999,40.8 C37.57,40.8 40.8,37.5701 40.8,33.6 L40.8,33.6 Z M12,46 L12,38 C12,36.8954 11.1046,36 10,36 L2,36 L2,2 L34,2 L34,22 L36,22 L36,2 C36,0.9 35.1,0 34,0 L2,0 C0.9,0 0,0.9 0,2 L0,38.0001 L10.0001,48 L34,48 C35.1,48 36,47.1 36,46 L34,46 L12,46 L12,46 Z" id="Shape" sketch:type="MSShapeGroup"></path>
        </g>
    </g>
</svg>