<?xml version="1.0" ?><svg height="48px" id="Layer_1" style="enable-background:new 0 0 48 48;" version="1.1" viewBox="0 0 48 48" width="48px" xml:space="preserve" xmlns="http://www.w3.org/2000/svg" xmlns:xlink="http://www.w3.org/1999/xlink"><style type="text/css">
	.st0{fill:#616161;}
</style><path class="st0" d="M20,18h-2v-4h2V18z M24,18v-6h-2v6H24z M28,18V8h-2v10H28z M32,18V6h-2v12H32z M20,24H6v2h14V24z M20,28H6v2h14  V28z M20,32H6v2h14V32z M4.1008,11H9V6.1008C6.4917,6.5239,4.5239,8.4917,4.1008,11z M16,12c0-2.9712-2.1648-5.4209-5-5.8992v5.4851  l3.882,3.882C15.5801,14.4872,16,13.2954,16,12z M10,18c1.2954,0,2.4872-0.4199,3.4679-1.118L9.5859,13H4.1008  C4.5791,15.8352,7.0288,18,10,18z M47.2969,47.2969C46.8281,47.7656,46.2141,48,45.6,48c-0.614,0-1.2281-0.2344-1.6969-0.7031  l-5.4337-5.4338C37.0405,42.707,35.3796,43.2,33.6,43.2c-5.3019,0-9.6-4.298-9.6-9.6s4.2981-9.6,9.6-9.6c5.302,0,9.6,4.298,9.6,9.6  c0,1.7797-0.4929,3.4406-1.3369,4.8694l5.4338,5.4337C48.2344,44.8406,48.2344,46.3594,47.2969,47.2969z M40.8,33.6  c0-3.9701-3.23-7.2-7.2001-7.2s-7.2,3.2299-7.2,7.2s3.2299,7.2,7.2,7.2S40.8,37.5701,40.8,33.6z M12,46v-8c0-1.1046-0.8954-2-2-2H2  V2h32v20h2V2c0-1.1-0.9-2-2-2H2C0.9,0,0,0.9,0,2v36.0001L10.0001,48H34c1.1,0,2-0.9,2-2h-2H12z"/></svg>