<?xml version="1.0" ?><!DOCTYPE svg  PUBLIC '-//W3C//DTD SVG 1.1//EN'  'http://www.w3.org/Graphics/SVG/1.1/DTD/svg11.dtd'><svg enable-background="new 0 0 48 48" height="48px" id="Layer_1" version="1.1" viewBox="0 0 48 48" width="48px" xml:space="preserve" xmlns="http://www.w3.org/2000/svg" xmlns:xlink="http://www.w3.org/1999/xlink"><g><g><path d="    M46.439,18.947c2.279,10.09-2.506,20.807-12.178,25.63c-9.59,4.782-20.918,2.243-27.626-5.495" fill="none" stroke="#000000" stroke-linecap="round" stroke-linejoin="round" stroke-miterlimit="10" stroke-width="2"/><path d="    M1.543,28.963C-0.693,18.9,4.095,8.231,13.737,3.422c9.872-4.923,21.588-2.084,28.209,6.195" fill="none" stroke="#000000" stroke-linecap="round" stroke-linejoin="round" stroke-miterlimit="10" stroke-width="2"/><polyline fill="none" points="    41.871,2.615 43.638,10.996 35.567,11.064   " stroke="#000000" stroke-linecap="round" stroke-linejoin="round" stroke-miterlimit="10" stroke-width="2"/><polyline fill="none" points="    6.723,46.059 4.955,37.678 13.027,37.609   " stroke="#000000" stroke-linecap="round" stroke-linejoin="round" stroke-miterlimit="10" stroke-width="2"/></g><g><path d="M22.981,35.648v-2.813c-1.615-0.027-3.288-0.529-4.263-1.226l0.669-1.867c1.004,0.669,2.451,1.198,4.013,1.198    c1.977,0,3.315-1.143,3.315-2.73c0-1.532-1.088-2.479-3.148-3.314c-2.841-1.114-4.597-2.395-4.597-4.819    c0-2.313,1.645-4.067,4.207-4.485v-2.813h1.728v2.702c1.67,0.056,2.812,0.501,3.62,0.975l-0.695,1.838    c-0.585-0.334-1.729-0.947-3.512-0.947c-2.145,0-2.952,1.282-2.952,2.396c0,1.448,1.03,2.173,3.455,3.175    c2.869,1.17,4.318,2.619,4.318,5.098c0,2.201-1.533,4.263-4.402,4.736v2.896H22.981z"/></g></g></svg>