<?xml version="1.0" ?><svg height="48px" id="Layer_1" style="enable-background:new 0 0 48 48;" version="1.1" viewBox="0 0 48 48" width="48px" xml:space="preserve" xmlns="http://www.w3.org/2000/svg" xmlns:xlink="http://www.w3.org/1999/xlink"><style type="text/css">
	.st0{fill:#616161;}
</style><path class="st0" d="M46,0H2C0.9,0,0,0.9,0,2v36c0,1.1,0.9,2,2,2h24v-2H10V8h36v20h2V2C48,0.9,47.1,0,46,0z M8,38H2V8h6V38z M30,4  c0-1.1046,0.8954-2,2-2s2,0.8954,2,2c0,1.1045-0.8954,2-2,2C30.8954,6,30,5.1045,30,4z M36,4c0-1.1046,0.8954-2,2-2s2,0.8954,2,2  c0,1.1045-0.8954,2-2,2S36,5.1045,36,4z M42,4c0-1.1046,0.8954-2,2-2s2,0.8954,2,2c0,1.1045-0.8954,2-2,2S42,5.1045,42,4z M6,14H4  v-2h2V14z M6,18H4v-2h2V18z M6,22H4v-2h2V22z M6,26H4v-2h2V26z M6,30H4v-2h2V30z M6,34H4v-2h2V34z M17.7749,13.7382l-3.5367,1.2711  l3.5367,1.2462v1.7374l-5.3423-2.2639v-1.4644L17.7749,12V13.7382z M26.3075,16.2698l3.6058-1.28l-3.6058-1.2587v-1.7249  l5.4034,2.2638v1.459L26.3075,18V16.2698z M24,14.0031v2h-3.7749v-2C20.2251,14.0031,24,14.0031,24,14.0031z M12,20h6v2h-6V20z   M36,22H20v-2h16V22z M12,24h12v2H12V24z M36,26H26v-2h10V26z M44.8687,33.9597l1.6166-1.6166l-2.8284-2.8285l-1.6167,1.6167  c-0.6313-0.3723-1.313-0.6602-2.0402-0.8485V28h-2h-2v2.2828c-0.7272,0.1884-1.4088,0.4762-2.0402,0.8485l-1.6167-1.6167  l-2.8284,2.8285l1.6166,1.6166c-0.3723,0.6315-0.6602,1.313-0.8485,2.0403H28v4h2.2828c0.1884,0.7273,0.4762,1.4088,0.8485,2.0403  l-1.6166,1.6166l2.8284,2.8284l1.6167-1.6167c0.6315,0.3723,1.313,0.6603,2.0402,0.8486V48h2h2v-2.2828  c0.7272-0.1884,1.4087-0.4763,2.0402-0.8486l1.6167,1.6167l2.8284-2.8284l-1.6166-1.6166c0.3723-0.6315,0.6602-1.313,0.8485-2.0403  H48v-4h-2.2828C45.5288,35.2727,45.241,34.5912,44.8687,33.9597z M38,43c-2.7615,0-5-2.2386-5-5c0-2.7615,2.2385-5,5-5s5,2.2385,5,5  C43,40.7614,40.7615,43,38,43z"/></svg>