<?xml version="1.0" ?><!DOCTYPE svg  PUBLIC '-//W3C//DTD SVG 1.1//EN'  'http://www.w3.org/Graphics/SVG/1.1/DTD/svg11.dtd'><svg enable-background="new 0 0 512 512" height="512px" id="Layer_1" version="1.1" viewBox="0 0 512 512" width="512px" xml:space="preserve" xmlns="http://www.w3.org/2000/svg" xmlns:xlink="http://www.w3.org/1999/xlink"><g><path d="M336,64h-32c0-26.508-21.492-48-48-48s-48,21.492-48,48h-32c-8.836,0-16,7.164-16,16v48   c0,8.836,7.164,16,16,16h160c8.836,0,16-7.164,16-16V80C352,71.164,344.836,64,336,64z M256,81.602   c-9.727,0-17.602-7.875-17.602-17.602S246.273,46.398,256,46.398c9.727,0,17.602,7.875,17.602,17.602S265.727,81.602,256,81.602z    M368,237.164c0,1.566-1.27,2.836-2.836,2.836h-90.328c-1.566,0-2.836-1.27-2.836-2.836v-26.328c0-1.566,1.27-2.836,2.836-2.836   h90.328c1.566,0,2.836,1.27,2.836,2.836V237.164z M368,317.164c0,1.566-1.27,2.836-2.836,2.836h-90.328   c-1.566,0-2.836-1.27-2.836-2.836v-26.328c0-1.566,1.27-2.836,2.836-2.836h90.328c1.566,0,2.836,1.27,2.836,2.836V317.164z    M368,397.164c0,1.566-1.27,2.836-2.836,2.836h-90.328c-1.566,0-2.836-1.27-2.836-2.836v-26.328c0-1.566,1.27-2.836,2.836-2.836   h90.328c1.566,0,2.836,1.27,2.836,2.836V397.164z M192.438,252.289c-1.859,2.313-4.688,3.688-7.703,3.719   c-3.008,0.031-5.867-1.266-7.797-3.531l-31.789-45.57c-1.758-2.063-1.453-5.141,0.672-6.859l7.148-6.109   c2.125-1.719,5.273-1.422,7.031,0.656l24.258,24.289l39.391-41c0.813-1.031,2.016-1.688,3.328-1.844   c1.32-0.156,2.641,0.203,3.688,1l7.43,5.797c2.164,1.656,2.547,4.719,0.844,6.828L192.438,252.289z M192.438,332.281   c-1.859,2.313-4.688,3.688-7.703,3.719c-3.008,0.031-5.867-1.266-7.797-3.531l-31.789-45.57c-1.758-2.063-1.453-5.141,0.672-6.858   l7.148-6.108c2.125-1.72,5.273-1.423,7.031,0.655l24.258,24.289l39.391-41c0.813-1.031,2.016-1.688,3.328-1.844   c1.32-0.156,2.641,0.203,3.688,1l7.43,5.797c2.164,1.655,2.547,4.719,0.844,6.828L192.438,332.281z M192.438,412.281   c-1.859,2.313-4.688,3.688-7.703,3.719c-3.008,0.031-5.867-1.25-7.797-3.531l-31.789-45.563c-1.758-2.063-1.453-5.142,0.672-6.859   l7.148-6.109c2.125-1.719,5.273-1.422,7.031,0.656l24.258,24.289l39.391-41c0.813-1.031,2.016-1.688,3.328-1.844   c1.32-0.156,2.641,0.203,3.688,1l7.43,5.797c2.164,1.656,2.547,4.719,0.844,6.828L192.438,412.281z M432,112v352   c0,17.656-14.328,32-32,32H112c-17.672,0-32-14.344-32-32V112c0-17.672,14.328-32,32-32h32v48h-27c-2.758,0-5,2.242-5,5v310   c0,2.75,2.242,5,5,5h278c2.758,0,5-2.25,5-5V133c0-2.758-2.242-5-5-5h-27V80h32C417.672,80,432,94.328,432,112z" fill="#4D4D4D"/></g></svg>