<?xml version="1.0" encoding="UTF-8" standalone="no"?>
<svg width="352px" height="480px" viewBox="0 0 352 480" version="1.1" xmlns="http://www.w3.org/2000/svg" xmlns:xlink="http://www.w3.org/1999/xlink" xmlns:sketch="http://www.bohemiancoding.com/sketch/ns">
    <!-- Generator: Sketch 3.4.2 (15855) - http://www.bohemiancoding.com/sketch -->
    <title>requirements</title>
    <desc>Created with Sketch.</desc>
    <defs></defs>
    <g id="Page-1" stroke="none" stroke-width="1" fill="none" fill-rule="evenodd" sketch:type="MSPage">
        <g id="requirements" sketch:type="MSLayerGroup" fill="#000000">
            <path d="M256,48 L224,48 C224,21.492 202.508,0 176,0 C149.492,0 128,21.492 128,48 L96,48 C87.164,48 80,55.164 80,64 L80,112 C80,120.836 87.164,128 96,128 L256,128 C264.836,128 272,120.836 272,112 L272,64 C272,55.164 264.836,48 256,48 L256,48 Z M176,65.602 C166.273,65.602 158.398,57.727 158.398,48 C158.398,38.273 166.273,30.398 176,30.398 C185.727,30.398 193.602,38.273 193.602,48 C193.602,57.727 185.727,65.602 176,65.602 L176,65.602 Z M288,221.164 C288,222.73 286.73,224 285.164,224 L194.836,224 C193.27,224 192,222.73 192,221.164 L192,194.836 C192,193.27 193.27,192 194.836,192 L285.164,192 C286.73,192 288,193.27 288,194.836 L288,221.164 L288,221.164 Z M288,301.164 C288,302.73 286.73,304 285.164,304 L194.836,304 C193.27,304 192,302.73 192,301.164 L192,274.836 C192,273.27 193.27,272 194.836,272 L285.164,272 C286.73,272 288,273.27 288,274.836 L288,301.164 L288,301.164 Z M288,381.164 C288,382.73 286.73,384 285.164,384 L194.836,384 C193.27,384 192,382.73 192,381.164 L192,354.836 C192,353.27 193.27,352 194.836,352 L285.164,352 C286.73,352 288,353.27 288,354.836 L288,381.164 L288,381.164 Z M112.438,236.289 C110.579,238.602 107.75,239.977 104.735,240.008 C101.727,240.039 98.868,238.742 96.938,236.477 L65.149,190.907 C63.391,188.844 63.696,185.766 65.821,184.048 L72.969,177.939 C75.094,176.22 78.242,176.517 80,178.595 L104.258,202.884 L143.649,161.884 C144.462,160.853 145.665,160.196 146.977,160.04 C148.297,159.884 149.618,160.243 150.665,161.04 L158.095,166.837 C160.259,168.493 160.642,171.556 158.939,173.665 L112.438,236.289 L112.438,236.289 Z M112.438,316.281 C110.579,318.594 107.75,319.969 104.735,320 C101.727,320.031 98.868,318.734 96.938,316.469 L65.149,270.899 C63.391,268.836 63.696,265.758 65.821,264.041 L72.969,257.933 C75.094,256.213 78.242,256.51 80,258.588 L104.258,282.877 L143.649,241.877 C144.462,240.846 145.665,240.189 146.977,240.033 C148.297,239.877 149.618,240.236 150.665,241.033 L158.095,246.83 C160.259,248.485 160.642,251.549 158.939,253.658 L112.438,316.281 L112.438,316.281 Z M112.438,396.281 C110.579,398.594 107.75,399.969 104.735,400 C101.727,400.031 98.868,398.75 96.938,396.469 L65.149,350.906 C63.391,348.843 63.696,345.764 65.821,344.047 L72.969,337.938 C75.094,336.219 78.242,336.516 80,338.594 L104.258,362.883 L143.649,321.883 C144.462,320.852 145.665,320.195 146.977,320.039 C148.297,319.883 149.618,320.242 150.665,321.039 L158.095,326.836 C160.259,328.492 160.642,331.555 158.939,333.664 L112.438,396.281 L112.438,396.281 Z M352,96 L352,448 C352,465.656 337.672,480 320,480 L32,480 C14.328,480 0,465.656 0,448 L0,96 C0,78.328 14.328,64 32,64 L64,64 L64,112 L37,112 C34.242,112 32,114.242 32,117 L32,427 C32,429.75 34.242,432 37,432 L315,432 C317.758,432 320,429.75 320,427 L320,117 C320,114.242 317.758,112 315,112 L288,112 L288,64 L320,64 C337.672,64 352,78.328 352,96 L352,96 Z" id="Shape" sketch:type="MSShapeGroup"></path>
        </g>
    </g>
</svg>