<?xml version="1.0" encoding="UTF-8" standalone="no"?>
<svg width="60px" height="78px" viewBox="0 0 60 78" version="1.1" xmlns="http://www.w3.org/2000/svg" xmlns:xlink="http://www.w3.org/1999/xlink" xmlns:sketch="http://www.bohemiancoding.com/sketch/ns">
    <!-- Generator: Sketch 3.4.2 (15855) - http://www.bohemiancoding.com/sketch -->
    <title>resource</title>
    <desc>Created with Sketch.</desc>
    <defs></defs>
    <g id="Page-1" stroke="none" stroke-width="1" fill="none" fill-rule="evenodd" sketch:type="MSPage">
        <g id="resource" sketch:type="MSLayerGroup" fill="#000000">
            <path d="M30,0 C13.43,0 0,13.441 0,30 C0,39.1 4.05,47.26 10.46,52.75 C10.58,52.861 10.71,52.971 10.84,53.08 C10.87,53.1 10.901,53.131 10.93,53.15 C12.19,54.031 13.94,53.82 14.951,52.611 C16.011,51.34 15.85,49.451 14.581,48.381 C9.34,43.971 6,37.371 6,30 C6,16.77 16.77,6 30,6 C43.23,6 54,16.77 54,30 C54,37.371 50.66,43.971 45.42,48.381 C44.15,49.451 43.99,51.34 45.05,52.621 C46.061,53.82 47.8,54.031 49.061,53.17 L49.081,53.15 C49.241,53.019 49.392,52.89 49.541,52.75 C55.95,47.26 60,39.1 60,30 C60,13.441 46.57,0 30,0 L30,0 Z M36,30 C36,26.687 33.314,24 30,24 C26.686,24 24,26.688 24,30 C24,33.314 26.686,36 30,36 C33.314,36 36,33.314 36,30 L36,30 Z M30,44.635 L26.35,39.006 L19.546,40.367 L19.546,55.697 L23.734,58.957 L25.818,78 L34.181,78 L36.265,58.957 L40.453,55.697 L40.453,40.367 L33.649,39.006 L30,44.635 L30,44.635 Z M46.29,37.641 C46.3,37.631 46.311,37.621 46.311,37.612 C46.321,37.591 46.331,37.581 46.331,37.561 C47.4,35.26 48,32.701 48,30 C48,20.061 39.939,12 30,12 C20.061,12 12,20.061 12,30 C12,32.701 12.6,35.26 13.67,37.561 C13.67,37.581 13.68,37.59 13.69,37.612 C13.69,37.622 13.701,37.632 13.711,37.641 C14.411,39.121 16.181,39.76 17.671,39.061 C19.181,38.362 19.821,36.571 19.121,35.071 C18.4,33.531 18,31.811 18,30 C18,23.381 23.38,18 30,18 C36.62,18 42,23.381 42,30 C42,31.811 41.6,33.531 40.88,35.07 C40.859,35.111 40.84,35.16 40.82,35.201 C40.21,36.67 40.859,38.381 42.33,39.06 C43.82,39.76 45.59,39.121 46.29,37.641 L46.29,37.641 Z" id="Shape" sketch:type="MSShapeGroup"></path>
        </g>
    </g>
</svg>