<?xml version="1.0" ?><!DOCTYPE svg  PUBLIC '-//W3C//DTD SVG 1.1//EN'  'http://www.w3.org/Graphics/SVG/1.1/DTD/svg11.dtd'><svg enable-background="new 0 0 64 64" id="Layer_1" version="1.1" viewBox="0 0 64 64" xml:space="preserve" xmlns="http://www.w3.org/2000/svg" xmlns:xlink="http://www.w3.org/1999/xlink"><path d="  M43.3,42 M43.4,40H21.2c-1,0-2.2,1.3-2.2,2.3v4.4c0,1,1.2,1.3,2.2,1.3h1.2l1.8,9.9c0.2,1,1.1,2.1,2.1,2.1h12c1,0,1.9-1.1,2.1-2.1  l1.8-9.9h1.2c1,0,1.6-0.3,1.6-1.3v-4.4C45,41.3,44.3,40,43.4,40L43.4,40z" fill="none" stroke="#2C3E50" stroke-linecap="round" stroke-linejoin="round" stroke-miterlimit="10" stroke-width="2"/><line fill="none" stroke="#2C3E50" stroke-linecap="round" stroke-linejoin="round" stroke-miterlimit="10" stroke-width="2" x1="39" x2="25" y1="47" y2="47"/><line fill="none" stroke="#2C3E50" stroke-linecap="round" stroke-linejoin="round" stroke-miterlimit="10" stroke-width="2" x1="32.3" x2="32.3" y1="32.4" y2="39.5"/><path d="  M27.9,31.6c0,0,2.2,0.8,4.4,0.8s4.4-0.6,4.4-0.6" fill="none" stroke="#2C3E50" stroke-linecap="round" stroke-linejoin="round" stroke-miterlimit="10" stroke-width="2"/><circle cx="32.3" cy="16" fill="none" r="11.6" stroke="#2C3E50" stroke-linecap="round" stroke-linejoin="round" stroke-miterlimit="10" stroke-width="2"/><path d="  M36.3,12.6c0,0-0.4-1.8-4.1-1.8c-2.9,0-4.1,1.6-4.1,2.9s1.7,2.4,4.1,2.4c3.2,0,4.1,1.1,4.1,2.4c0,1.8-2,2.9-4.1,2.9  s-3.8-1.2-4.1-1.8" fill="none" stroke="#2C3E50" stroke-linecap="round" stroke-linejoin="round" stroke-miterlimit="10" stroke-width="2"/><line fill="none" stroke="#2C3E50" stroke-linecap="round" stroke-linejoin="round" stroke-miterlimit="10" stroke-width="2" x1="32.2" x2="32.2" y1="8.8" y2="23.2"/><path d="  M52.8,26.5c-2.3,1.7-7.7,1.2-10.7,3.7c-1.4,1.1-2.1,2.6-2.2,5.5c0,0.5-0.1,0.7,0.4,0.7c4,0.1,6.4-0.2,8.2-1.3  C51.2,33.4,52.3,29.2,52.8,26.5z" fill="none" stroke="#2C3E50" stroke-linecap="round" stroke-linejoin="round" stroke-miterlimit="10" stroke-width="2"/><path d="  M11.2,26.5c2.3,1.7,7.7,1.2,10.7,3.7c1.4,1.1,2.1,2.6,2.2,5.5c0,0.5,0.1,0.7-0.4,0.7c-4,0.1-6.4-0.2-8.2-1.3  C12.8,33.4,11.7,29.2,11.2,26.5z" fill="none" stroke="#2C3E50" stroke-linecap="round" stroke-linejoin="round" stroke-miterlimit="10" stroke-width="2"/></svg>