<?xml version="1.0" encoding="UTF-8" standalone="no"?>
<svg width="46px" height="58px" viewBox="0 0 46 58" version="1.1" xmlns="http://www.w3.org/2000/svg" xmlns:xlink="http://www.w3.org/1999/xlink" xmlns:sketch="http://www.bohemiancoding.com/sketch/ns">
    <!-- Generator: Sketch 3.4.2 (15855) - http://www.bohemiancoding.com/sketch -->
    <title>roi</title>
    <desc>Created with Sketch.</desc>
    <defs></defs>
    <g id="Page-1" stroke="none" stroke-width="1" fill="none" fill-rule="evenodd" sketch:type="MSPage">
        <g id="roi" sketch:type="MSLayerGroup" transform="translate(2.000000, 1.000000)" stroke="#000000" stroke-width="2">
            <path d="M32.4,36 L10.2,36 C9.2,36 8,37.3 8,38.3 L8,42.7 C8,43.7 9.2,44 10.2,44 L11.4,44 L13.2,53.9 C13.4,54.9 14.3,56 15.3,56 L27.3,56 C28.3,56 29.2,54.9 29.4,53.9 L31.2,44 L32.4,44 C33.4,44 34,43.7 34,42.7 L34,38.3 C34,37.3 33.3,36 32.4,36 L32.4,36 L32.4,36 Z" id="Shape" sketch:type="MSShapeGroup"></path>
            <path d="M28,43 L14,43" id="Shape" sketch:type="MSShapeGroup"></path>
            <path d="M21.3,28.4 L21.3,35.5" id="Shape" sketch:type="MSShapeGroup"></path>
            <path d="M16.9,27.6 C16.9,27.6 19.1,28.4 21.3,28.4 C23.5,28.4 25.7,27.8 25.7,27.8" id="Shape" sketch:type="MSShapeGroup"></path>
            <circle id="Oval" sketch:type="MSShapeGroup" cx="21.3" cy="12" r="11.6"></circle>
            <path d="M25.3,8.6 C25.3,8.6 24.9,6.8 21.2,6.8 C18.3,6.8 17.1,8.4 17.1,9.7 C17.1,11 18.8,12.1 21.2,12.1 C24.4,12.1 25.3,13.2 25.3,14.5 C25.3,16.3 23.3,17.4 21.2,17.4 C19.1,17.4 17.4,16.2 17.1,15.6" id="Shape" sketch:type="MSShapeGroup"></path>
            <path d="M21.2,4.8 L21.2,19.2" id="Shape" sketch:type="MSShapeGroup"></path>
            <path d="M41.8,22.5 C39.5,24.2 34.1,23.7 31.1,26.2 C29.7,27.3 29,28.8 28.9,31.7 C28.9,32.2 28.8,32.4 29.3,32.4 C33.3,32.5 35.7,32.2 37.5,31.1 C40.2,29.4 41.3,25.2 41.8,22.5 L41.8,22.5 Z" id="Shape" sketch:type="MSShapeGroup"></path>
            <path d="M0.2,22.5 C2.5,24.2 7.9,23.7 10.9,26.2 C12.3,27.3 13,28.8 13.1,31.7 C13.1,32.2 13.2,32.4 12.7,32.4 C8.7,32.5 6.3,32.2 4.5,31.1 C1.8,29.4 0.7,25.2 0.2,22.5 L0.2,22.5 Z" id="Shape" sketch:type="MSShapeGroup"></path>
        </g>
    </g>
</svg>