<?xml version="1.0" encoding="UTF-8" standalone="no"?>
<svg width="62px" height="40px" viewBox="0 0 62 40" version="1.1" xmlns="http://www.w3.org/2000/svg" xmlns:xlink="http://www.w3.org/1999/xlink" xmlns:sketch="http://www.bohemiancoding.com/sketch/ns">
    <!-- Generator: Sketch 3.4.2 (15855) - http://www.bohemiancoding.com/sketch -->
    <title>vision</title>
    <desc>Created with Sketch.</desc>
    <defs></defs>
    <g id="Page-1" stroke="none" stroke-width="1" fill="none" fill-rule="evenodd" sketch:type="MSPage">
        <g id="1455390761_004_075_eye_correction_vision_laser_surgery" sketch:type="MSLayerGroup" transform="translate(2.000000, 1.000000)" stroke-width="2">
            <g id="Group" sketch:type="MSShapeGroup">
                <path d="M58,19 C55.0370026,25.4628983 44.2836914,38 29,38 C13.7163086,38 2.9629993,25.4628983 0,19 C2.9629993,12.5371017 13.7162933,0 29,0 C44.2837067,0 55.0370026,12.5371017 58,19 L58,19 Z" id="Shape" stroke="#383128" fill="#FFFFFF"></path>
                <path d="M42.3442917,20.7930984 L42.3442917,17.2069015 L39.2606926,16.1790008 C39.0411911,15.4059982 38.7347946,14.6699981 38.3510017,13.9824981 L39.8045921,11.0755004 L37.2687912,8.5396995 L34.3617935,9.9933013 C33.6742935,9.6094016 32.9382934,9.3031005 32.1652946,9.083599 L31.137394,6 L27.5511933,6 L26.5232926,9.0835991 C25.7502938,9.3031006 25.0142937,9.6094017 24.3267937,9.9933014 L21.4197922,8.5396996 L18.8839989,11.0755005 L20.3375931,13.9824982 C19.9536934,14.6699982 19.6473923,15.4059983 19.4278946,16.1790009 L16.3442917,17.2069016 L16.3442917,20.7930985 L19.4278946,21.8209992 C19.6473923,22.5940018 19.9536934,23.3300019 20.3375931,24.0175019 L18.8839989,26.9244996 L21.4197922,29.4603005 L24.3267937,28.0066987 C25.0142937,28.3904992 25.7502938,28.6968995 26.5232926,28.916401 L27.5511932,32 L31.1373939,32 L32.1652946,28.9164009 C32.9382934,28.6968994 33.6742935,28.3904991 34.3617935,28.0066986 L37.2687912,29.4603004 L39.8045921,26.9244995 L38.3510017,24.0175018 C38.7347946,23.3300018 39.0411911,22.5940017 39.2606926,21.8209991 L42.3442917,20.7930984 L42.3442917,20.7930984 Z" id="Shape" stroke="#232E38" fill="#ABCFD3"></path>
                <circle id="Oval" stroke="#232E38" fill="#FFFFFF" cx="29.3442917" cy="19" r="3"></circle>
            </g>
        </g>
    </g>
</svg>